<svg id="Layer_1" data-name="Layer 1" xmlns="http://www.w3.org/2000/svg" viewBox="0 0 512 512"><title>wifi-flat</title><path d="M0,256C0,114.62,114.62,0,256,0S512,114.63,512,256,397.37,512,256,512,0,397.38,0,256Z" fill="#2b77c1"/><path d="M347.75,233.19a9.28,9.28,0,0,0,4.25-5.78c1.54-5.39-1.55-10-6.94-11.54-30.42-6.94-62.38-2.71-89.34,12.7a122.39,122.39,0,0,0-57,69.32,9,9,0,0,0,5.77,11.94c5.4,1.92,10.4-.77,12.32-6.16a105.21,105.21,0,0,1,124-69.32,7.62,7.62,0,0,0,6.92-1.15Z" fill="#fff" fill-rule="evenodd"/><path d="M337.74,288.25c2.31-1.54,3.46-3.46,4.62-6.54A8.89,8.89,0,0,0,335,270.93a72.3,72.3,0,0,0-51.6,6.55c-15.79,9.23-27.73,23.49-33.12,40-1.55,5.4,1.16,10.79,6.15,12.33,5,1.92,10-1.15,11.94-5.77a53,53,0,0,1,24.25-29.65A51.78,51.78,0,0,1,330.42,289a14.21,14.21,0,0,0,7.32-.78Z" fill="#fff" fill-rule="evenodd"/><path d="M319.63,322.92a16.95,16.95,0,1,1-17.33,16.94,17.11,17.11,0,0,1,17.33-16.94Z" fill="#fff" fill-rule="evenodd"/><path d="M367.4,177.74a10.6,10.6,0,0,0,4.62-6.17,9.28,9.28,0,0,0-6.94-11.16,190.52,190.52,0,0,0-224.9,125.15,9.93,9.93,0,0,0,6.16,12.32c5,1.93,10-1.15,11.94-5.77A171.4,171.4,0,0,1,360.46,178.89c2.31,0,5.4,0,6.94-1.15Z" fill="#fff" fill-rule="evenodd"/></svg>